STARTFONT 2.3
FONT -FontForge-Tangerine-Book-R-Normal--16-160-72-72-P-60-ISO10646-1
SIZE 16 72 72  2
FONTBOUNDINGBOX 26 18 -5 -5
COMMENT "Generated by fontforge, http://fontforge.sourceforge.net"
COMMENT "Copyright (c) 2010 by Toshi Omagari. All rights reserved."
STARTPROPERTIES 40
FOUNDRY "FontForge"
FAMILY_NAME "Tangerine"
WEIGHT_NAME "Book"
SLANT "R"
SETWIDTH_NAME "Normal"
ADD_STYLE_NAME ""
PIXEL_SIZE 16
POINT_SIZE 160
RESOLUTION_X 72
RESOLUTION_Y 72
SPACING "P"
AVERAGE_WIDTH 60
CHARSET_REGISTRY "ISO10646"
CHARSET_ENCODING "1"
FONTNAME_REGISTRY ""
CHARSET_COLLECTIONS "ISO10646-1"
BITS_PER_PIXEL 2
FONT_NAME "Tangerine-Regular"
FACE_NAME "Tangerine Regular"
COPYRIGHT "Copyright (c) 2010 by Toshi Omagari. All rights reserved."
FONT_VERSION "1.3"
FONT_ASCENT 12
FONT_DESCENT 4
UNDERLINE_POSITION -2
UNDERLINE_THICKNESS 1
X_HEIGHT 3
CAP_HEIGHT 9
RAW_ASCENT 750
RAW_DESCENT 250
NORM_SPACE 2
RELATIVE_WEIGHT 40
RELATIVE_SETWIDTH 50
SUPERSCRIPT_X 0
SUPERSCRIPT_Y 7
SUPERSCRIPT_SIZE 10
SUBSCRIPT_X 0
SUBSCRIPT_Y 2
SUBSCRIPT_SIZE 10
AVG_LOWERCASE_WIDTH 39
AVG_UPPERCASE_WIDTH 113
ENDPROPERTIES
CHARS 233
STARTCHAR space
ENCODING 32
SWIDTH 150 0
DWIDTH 2 0
BBX 1 1 0 0
BITMAP
00
ENDCHAR
STARTCHAR exclam
ENCODING 33
SWIDTH 189 0
DWIDTH 3 0
BBX 4 9 1 0
BITMAP
01
02
05
08
04
10
10
00
80
ENDCHAR
STARTCHAR quotedbl
ENCODING 34
SWIDTH 214 0
DWIDTH 3 0
BBX 3 3 1 4
BITMAP
14
54
10
ENDCHAR
STARTCHAR numbersign
ENCODING 35
SWIDTH 289 0
DWIDTH 5 0
BBX 5 5 0 0
BITMAP
0440
2F80
1100
7900
4000
ENDCHAR
STARTCHAR dollar
ENCODING 36
SWIDTH 269 0
DWIDTH 4 0
BBX 4 6 0 0
BITMAP
01
06
14
08
55
50
ENDCHAR
STARTCHAR percent
ENCODING 37
SWIDTH 388 0
DWIDTH 6 0
BBX 6 7 0 -1
BITMAP
0010
1840
4500
5560
0510
1140
5000
ENDCHAR
STARTCHAR ampersand
ENCODING 38
SWIDTH 507 0
DWIDTH 8 0
BBX 8 8 0 0
BITMAP
0280
0440
0440
0800
1505
4210
8180
6565
ENDCHAR
STARTCHAR quotesingle
ENCODING 39
SWIDTH 120 0
DWIDTH 2 0
BBX 2 2 1 4
BITMAP
50
40
ENDCHAR
STARTCHAR parenleft
ENCODING 40
SWIDTH 250 0
DWIDTH 4 0
BBX 4 11 1 -1
BITMAP
01
04
04
20
20
10
50
40
40
40
40
ENDCHAR
STARTCHAR parenright
ENCODING 41
SWIDTH 276 0
DWIDTH 4 0
BBX 4 11 1 -1
BITMAP
04
04
05
05
04
08
08
14
20
10
40
ENDCHAR
STARTCHAR asterisk
ENCODING 42
SWIDTH 188 0
DWIDTH 3 0
BBX 3 3 1 4
BITMAP
10
64
50
ENDCHAR
STARTCHAR plus
ENCODING 43
SWIDTH 301 0
DWIDTH 5 0
BBX 4 3 1 1
BITMAP
10
FD
10
ENDCHAR
STARTCHAR comma
ENCODING 44
SWIDTH 112 0
DWIDTH 2 0
BBX 2 2 0 -1
BITMAP
50
40
ENDCHAR
STARTCHAR hyphen
ENCODING 45
SWIDTH 245 0
DWIDTH 4 0
BBX 4 1 0 2
BITMAP
6D
ENDCHAR
STARTCHAR period
ENCODING 46
SWIDTH 112 0
DWIDTH 2 0
BBX 2 1 0 0
BITMAP
50
ENDCHAR
STARTCHAR slash
ENCODING 47
SWIDTH 210 0
DWIDTH 3 0
BBX 7 11 -1 -1
BITMAP
0004
0010
0010
0040
0040
0100
0100
0400
1000
1000
4000
ENDCHAR
STARTCHAR zero
ENCODING 48
SWIDTH 349 0
DWIDTH 6 0
BBX 5 5 1 0
BITMAP
1600
4140
4140
8100
A400
ENDCHAR
STARTCHAR one
ENCODING 49
SWIDTH 189 0
DWIDTH 3 0
BBX 4 5 0 0
BITMAP
2D
08
14
20
50
ENDCHAR
STARTCHAR two
ENCODING 50
SWIDTH 277 0
DWIDTH 4 0
BBX 5 5 0 0
BITMAP
0600
1140
0100
0400
6900
ENDCHAR
STARTCHAR three
ENCODING 51
SWIDTH 253 0
DWIDTH 4 0
BBX 5 8 -1 -3
BITMAP
0580
0080
0640
0100
0080
0180
4600
B800
ENDCHAR
STARTCHAR four
ENCODING 52
SWIDTH 363 0
DWIDTH 6 0
BBX 6 8 1 0
BITMAP
0060
0180
0440
1200
4240
6F40
0800
0800
ENDCHAR
STARTCHAR five
ENCODING 53
SWIDTH 250 0
DWIDTH 4 0
BBX 6 8 -1 -3
BITMAP
0290
0400
0A00
0200
0140
0100
4500
B400
ENDCHAR
STARTCHAR six
ENCODING 54
SWIDTH 296 0
DWIDTH 5 0
BBX 7 8 0 0
BITMAP
00B8
0244
0800
1500
2180
1080
5100
2500
ENDCHAR
STARTCHAR seven
ENCODING 55
SWIDTH 326 0
DWIDTH 5 0
BBX 6 8 0 -3
BITMAP
1FE0
1010
0040
0100
0400
1400
5000
8000
ENDCHAR
STARTCHAR eight
ENCODING 56
SWIDTH 305 0
DWIDTH 5 0
BBX 6 8 0 0
BITMAP
0140
0420
0810
0240
1580
1080
5040
2500
ENDCHAR
STARTCHAR nine
ENCODING 57
SWIDTH 304 0
DWIDTH 5 0
BBX 6 8 -1 -3
BITMAP
0050
0420
0420
1890
0F80
0040
0600
7800
ENDCHAR
STARTCHAR colon
ENCODING 58
SWIDTH 156 0
DWIDTH 3 0
BBX 2 4 0 0
BITMAP
10
00
00
40
ENDCHAR
STARTCHAR semicolon
ENCODING 59
SWIDTH 156 0
DWIDTH 3 0
BBX 2 5 0 -1
BITMAP
10
00
00
50
40
ENDCHAR
STARTCHAR less
ENCODING 60
SWIDTH 301 0
DWIDTH 5 0
BBX 3 4 1 0
BITMAP
14
80
74
18
ENDCHAR
STARTCHAR equal
ENCODING 61
SWIDTH 301 0
DWIDTH 5 0
BBX 5 4 0 0
BITMAP
3F40
0000
0000
7F00
ENDCHAR
STARTCHAR greater
ENCODING 62
SWIDTH 301 0
DWIDTH 5 0
BBX 3 2 1 2
BITMAP
64
08
ENDCHAR
STARTCHAR question
ENCODING 63
SWIDTH 285 0
DWIDTH 5 0
BBX 5 9 1 0
BITMAP
0640
1080
0040
0040
0500
1000
2000
0000
8000
ENDCHAR
STARTCHAR at
ENCODING 64
SWIDTH 492 0
DWIDTH 8 0
BBX 8 8 0 -2
BITMAP
06E4
1918
2155
1444
5588
16B4
2404
0650
ENDCHAR
STARTCHAR A
ENCODING 65
SWIDTH 996 0
DWIDTH 16 0
BBX 15 10 1 0
BITMAP
00005594
00000008
00000020
00000020
00000450
0002FFC0
00004080
40010080
80140080
AA4000A0
ENDCHAR
STARTCHAR B
ENCODING 66
SWIDTH 638 0
DWIDTH 10 0
BBX 10 10 1 0
BITMAP
005540
001050
004050
004080
004600
010180
010080
040080
A00080
155500
ENDCHAR
STARTCHAR C
ENCODING 67
SWIDTH 557 0
DWIDTH 9 0
BBX 9 10 1 0
BITMAP
015580
040040
100000
500000
800000
800000
C00000
900100
200100
095800
ENDCHAR
STARTCHAR D
ENCODING 68
SWIDTH 799 0
DWIDTH 13 0
BBX 13 10 0 0
BITMAP
005A9000
01005400
00010500
00020200
00050140
00080080
00040080
00100040
15500100
55595400
ENDCHAR
STARTCHAR E
ENCODING 69
SWIDTH 494 0
DWIDTH 8 0
BBX 8 10 1 0
BITMAP
0015
0101
0600
0280
1400
5000
8000
8004
8014
2550
ENDCHAR
STARTCHAR F
ENCODING 70
SWIDTH 626 0
DWIDTH 10 0
BBX 13 10 1 0
BITMAP
0016BF40
00005000
00008000
00014000
00010000
00BFE000
00020000
40040000
40140000
A5400000
ENDCHAR
STARTCHAR G
ENCODING 71
SWIDTH 571 0
DWIDTH 9 0
BBX 12 13 -1 -3
BITMAP
0000BE
000642
000801
002000
005000
008000
008010
008060
101050
500080
800100
500500
155000
ENDCHAR
STARTCHAR H
ENCODING 72
SWIDTH 865 0
DWIDTH 14 0
BBX 18 11 1 0
BITMAP
0000000180
0055800510
0101001000
0102004000
0005004000
0008010000
0AF9560000
64140B0000
8010050000
4000080000
4100090000
ENDCHAR
STARTCHAR I
ENCODING 73
SWIDTH 554 0
DWIDTH 9 0
BBX 11 10 1 0
BITMAP
000064
000450
001080
001040
004100
004200
400500
400800
806000
7E4000
ENDCHAR
STARTCHAR J
ENCODING 74
SWIDTH 634 0
DWIDTH 10 0
BBX 13 13 0 -3
BITMAP
00000580
00001200
00000400
00010800
00010800
00011400
00002000
04005000
10008000
40014000
80050000
90640000
7F800000
ENDCHAR
STARTCHAR K
ENCODING 75
SWIDTH 936 0
DWIDTH 15 0
BBX 15 10 1 0
BITMAP
00169058
00404100
01014400
01021000
00024000
00025000
40052000
40042000
80101800
A5400650
ENDCHAR
STARTCHAR L
ENCODING 76
SWIDTH 657 0
DWIDTH 11 0
BBX 12 10 0 0
BITMAP
00006D
000142
000201
000500
000800
000400
002000
192000
56D410
551F90
ENDCHAR
STARTCHAR M
ENCODING 77
SWIDTH 1219 0
DWIDTH 20 0
BBX 20 10 1 0
BITMAP
00055A5005
0000006018
0010008020
0000018050
0000014080
4000020080
4000020140
8001020140
8004060140
6A50050090
ENDCHAR
STARTCHAR N
ENCODING 78
SWIDTH 990 0
DWIDTH 16 0
BBX 20 10 1 0
BITMAP
005A500029
0000600040
0000140100
0000450100
0000420400
0000004400
4001008400
4004005000
8010002000
6A40001000
ENDCHAR
STARTCHAR O
ENCODING 79
SWIDTH 606 0
DWIDTH 10 0
BBX 10 10 1 0
BITMAP
01BE00
090280
100090
100050
400050
800040
800080
900100
741900
1BE000
ENDCHAR
STARTCHAR P
ENCODING 80
SWIDTH 783 0
DWIDTH 13 0
BBX 13 10 1 0
BITMAP
00055500
00104140
00004080
00414080
00010080
00060600
40055400
40040000
40100000
65400000
ENDCHAR
STARTCHAR Q
ENCODING 81
SWIDTH 563 0
DWIDTH 9 0
BBX 11 14 1 -3
BITMAP
01A400
050400
000040
000080
100080
500180
500240
240600
001800
01A000
6D0000
064000
006404
000BE0
ENDCHAR
STARTCHAR R
ENCODING 82
SWIDTH 854 0
DWIDTH 14 0
BBX 12 10 1 0
BITMAP
000554
000042
000202
000202
000554
000880
400480
401050
404020
A50019
ENDCHAR
STARTCHAR S
ENCODING 83
SWIDTH 480 0
DWIDTH 8 0
BBX 8 10 1 0
BITMAP
0004
0101
0200
0180
0090
0020
0014
4014
8010
6540
ENDCHAR
STARTCHAR T
ENCODING 84
SWIDTH 577 0
DWIDTH 9 0
BBX 12 10 1 0
BITMAP
007FE5
014055
040000
040040
000100
000200
000500
400400
801000
A54000
ENDCHAR
STARTCHAR U
ENCODING 85
SWIDTH 752 0
DWIDTH 12 0
BBX 13 10 1 0
BITMAP
05A40140
10100200
40400800
40400800
41002400
01006000
05006000
05021000
06185000
03E02400
ENDCHAR
STARTCHAR V
ENCODING 86
SWIDTH 661 0
DWIDTH 11 0
BBX 11 10 1 0
BITMAP
068074
10104C
401008
401004
001400
001400
001440
002100
002400
001000
ENDCHAR
STARTCHAR W
ENCODING 87
SWIDTH 822 0
DWIDTH 13 0
BBX 14 10 1 0
BITMAP
1A800060
00501020
40108010
00108010
00108040
00108000
00508000
00408000
00408000
00408000
ENDCHAR
STARTCHAR X
ENCODING 88
SWIDTH 813 0
DWIDTH 13 0
BBX 13 10 1 0
BITMAP
00300640
00541040
00084000
00080000
00080000
00050000
00020000
40024000
4101D100
A4007C00
ENDCHAR
STARTCHAR Y
ENCODING 89
SWIDTH 662 0
DWIDTH 11 0
BBX 14 12 0 -2
BITMAP
00190020
00050050
00040080
00080240
00040600
04141800
10145400
401E5000
80004000
80014000
64190000
1F900000
ENDCHAR
STARTCHAR Z
ENCODING 90
SWIDTH 625 0
DWIDTH 10 0
BBX 10 10 1 0
BITMAP
007FE0
014000
010000
000400
001000
004000
010000
040040
290100
46F800
ENDCHAR
STARTCHAR bracketleft
ENCODING 91
SWIDTH 318 0
DWIDTH 5 0
BBX 6 12 1 -2
BITMAP
0250
0500
0800
0800
0800
1400
1000
2000
2000
6000
5000
9400
ENDCHAR
STARTCHAR backslash
ENCODING 92
SWIDTH 212 0
DWIDTH 3 0
BBX 3 11 0 -1
BITMAP
40
40
10
10
10
10
10
04
04
04
04
ENDCHAR
STARTCHAR bracketright
ENCODING 93
SWIDTH 339 0
DWIDTH 5 0
BBX 6 12 0 -2
BITMAP
0160
0050
0050
0080
0080
0080
0140
0200
0200
0200
0500
5900
ENDCHAR
STARTCHAR asciicircum
ENCODING 94
SWIDTH 272 0
DWIDTH 4 0
BBX 3 3 1 3
BITMAP
14
58
44
ENDCHAR
STARTCHAR underscore
ENCODING 95
SWIDTH 356 0
DWIDTH 6 0
BBX 5 1 0 -1
BITMAP
A940
ENDCHAR
STARTCHAR grave
ENCODING 96
SWIDTH 155 0
DWIDTH 2 0
BBX 2 1 0 5
BITMAP
50
ENDCHAR
STARTCHAR a
ENCODING 97
SWIDTH 294 0
DWIDTH 5 0
BBX 5 4 0 0
BITMAP
1F40
2100
5600
6200
ENDCHAR
STARTCHAR b
ENCODING 98
SWIDTH 247 0
DWIDTH 4 0
BBX 9 12 0 0
BITMAP
001640
004000
000000
010000
040000
040000
040000
100000
260000
210000
510000
640000
ENDCHAR
STARTCHAR c
ENCODING 99
SWIDTH 203 0
DWIDTH 3 0
BBX 3 4 0 0
BITMAP
04
10
40
64
ENDCHAR
STARTCHAR d
ENCODING 100
SWIDTH 285 0
DWIDTH 5 0
BBX 10 12 0 0
BITMAP
000060
000100
000400
000000
001000
004000
004000
004000
120000
120000
460000
660000
ENDCHAR
STARTCHAR e
ENCODING 101
SWIDTH 206 0
DWIDTH 3 0
BBX 3 4 0 0
BITMAP
08
14
40
64
ENDCHAR
STARTCHAR f
ENCODING 102
SWIDTH 156 0
DWIDTH 3 0
BBX 14 16 -5 -4
BITMAP
00000190
00000000
00001000
00004000
00004000
00010000
00020000
00010000
000F8000
00080000
00080000
00140000
00100000
00400000
00400000
54000000
ENDCHAR
STARTCHAR g
ENCODING 103
SWIDTH 210 0
DWIDTH 3 0
BBX 6 8 -2 -4
BITMAP
0150
0480
0780
0100
0040
4040
9080
6E40
ENDCHAR
STARTCHAR h
ENCODING 104
SWIDTH 292 0
DWIDTH 5 0
BBX 9 12 0 0
BITMAP
000580
001000
004000
010000
010000
040000
040000
140000
124000
220000
520000
420000
ENDCHAR
STARTCHAR i
ENCODING 105
SWIDTH 149 0
DWIDTH 2 0
BBX 3 6 0 0
BITMAP
04
00
10
10
50
50
ENDCHAR
STARTCHAR j
ENCODING 106
SWIDTH 136 0
DWIDTH 2 0
BBX 8 10 -5 -4
BITMAP
0001
0000
0004
0004
0004
0010
0010
0040
0000
5400
ENDCHAR
STARTCHAR k
ENCODING 107
SWIDTH 259 0
DWIDTH 4 0
BBX 9 12 0 0
BITMAP
000580
001000
004000
010000
010000
040000
040000
100000
260000
250000
540000
490000
ENDCHAR
STARTCHAR l
ENCODING 108
SWIDTH 134 0
DWIDTH 2 0
BBX 8 12 0 0
BITMAP
0019
0050
0040
0100
0000
0400
0400
1000
1000
5000
5000
5000
ENDCHAR
STARTCHAR m
ENCODING 109
SWIDTH 413 0
DWIDTH 7 0
BBX 7 4 0 0
BITMAP
2214
2210
1220
4520
ENDCHAR
STARTCHAR n
ENCODING 110
SWIDTH 291 0
DWIDTH 5 0
BBX 5 4 0 0
BITMAP
2240
2200
1200
4200
ENDCHAR
STARTCHAR o
ENCODING 111
SWIDTH 225 0
DWIDTH 4 0
BBX 4 4 0 0
BITMAP
05
05
48
74
ENDCHAR
STARTCHAR p
ENCODING 112
SWIDTH 261 0
DWIDTH 4 0
BBX 5 9 -1 -4
BITMAP
0500
0540
0480
1180
2E00
2000
5000
4000
9000
ENDCHAR
STARTCHAR q
ENCODING 113
SWIDTH 269 0
DWIDTH 4 0
BBX 5 8 0 -4
BITMAP
0540
1200
4500
5800
0800
1400
1000
2400
ENDCHAR
STARTCHAR r
ENCODING 114
SWIDTH 195 0
DWIDTH 3 0
BBX 4 4 0 0
BITMAP
2A
24
20
50
ENDCHAR
STARTCHAR s
ENCODING 115
SWIDTH 188 0
DWIDTH 3 0
BBX 3 4 0 0
BITMAP
14
20
14
54
ENDCHAR
STARTCHAR t
ENCODING 116
SWIDTH 171 0
DWIDTH 3 0
BBX 4 6 0 0
BITMAP
04
14
2D
20
50
60
ENDCHAR
STARTCHAR u
ENCODING 117
SWIDTH 299 0
DWIDTH 5 0
BBX 5 4 0 0
BITMAP
1140
1200
5600
5200
ENDCHAR
STARTCHAR v
ENCODING 118
SWIDTH 271 0
DWIDTH 4 0
BBX 5 4 0 0
BITMAP
2140
1200
1900
6400
ENDCHAR
STARTCHAR w
ENCODING 119
SWIDTH 369 0
DWIDTH 6 0
BBX 6 4 0 0
BITMAP
6110
2510
2500
1640
ENDCHAR
STARTCHAR x
ENCODING 120
SWIDTH 263 0
DWIDTH 4 0
BBX 5 4 0 0
BITMAP
2340
1840
1400
8900
ENDCHAR
STARTCHAR y
ENCODING 121
SWIDTH 280 0
DWIDTH 4 0
BBX 8 8 -3 -4
BITMAP
0045
0048
0158
0154
0010
4010
4040
5500
ENDCHAR
STARTCHAR z
ENCODING 122
SWIDTH 238 0
DWIDTH 4 0
BBX 4 4 0 0
BITMAP
19
04
10
A4
ENDCHAR
STARTCHAR braceleft
ENCODING 123
SWIDTH 291 0
DWIDTH 5 0
BBX 5 12 1 -2
BITMAP
0140
0400
0800
0800
0400
1000
2000
2000
5000
8000
8000
1000
ENDCHAR
STARTCHAR bar
ENCODING 124
SWIDTH 162 0
DWIDTH 3 0
BBX 1 14 1 -4
BITMAP
40
40
40
40
40
40
40
40
40
40
40
40
40
40
ENDCHAR
STARTCHAR braceright
ENCODING 125
SWIDTH 285 0
DWIDTH 5 0
BBX 5 12 0 -2
BITMAP
0140
0080
0080
0140
0200
0240
0100
0400
0800
0800
1400
5000
ENDCHAR
STARTCHAR asciitilde
ENCODING 126
SWIDTH 383 0
DWIDTH 6 0
BBX 5 2 1 2
BITMAP
7440
5A00
ENDCHAR
STARTCHAR space.dup1
ENCODING 160
SWIDTH 150 0
DWIDTH 2 0
BBX 1 1 0 0
BITMAP
00
ENDCHAR
STARTCHAR exclamdown
ENCODING 161
SWIDTH 189 0
DWIDTH 3 0
BBX 4 9 -1 -5
BITMAP
02
00
04
04
10
10
50
80
40
ENDCHAR
STARTCHAR cent
ENCODING 162
SWIDTH 194 0
DWIDTH 3 0
BBX 4 6 0 -1
BITMAP
1D
54
A0
A0
50
40
ENDCHAR
STARTCHAR sterling
ENCODING 163
SWIDTH 344 0
DWIDTH 6 0
BBX 6 5 0 0
BITMAP
0190
0500
0900
0400
6A40
ENDCHAR
STARTCHAR currency
ENCODING 164
SWIDTH 344 0
DWIDTH 6 0
BBX 5 5 0 0
BITMAP
1000
1040
1040
1100
4000
ENDCHAR
STARTCHAR yen
ENCODING 165
SWIDTH 309 0
DWIDTH 5 0
BBX 5 5 0 0
BITMAP
2040
0600
3800
1400
7D00
ENDCHAR
STARTCHAR brokenbar
ENCODING 166
SWIDTH 162 0
DWIDTH 3 0
BBX 1 14 1 -4
BITMAP
40
40
40
40
40
00
00
00
00
40
40
40
40
40
ENDCHAR
STARTCHAR section
ENCODING 167
SWIDTH 395 0
DWIDTH 6 0
BBX 9 13 -1 -4
BITMAP
000500
005540
014040
014000
025000
025000
016000
016000
00A000
00A000
409000
805000
650000
ENDCHAR
STARTCHAR dieresis
ENCODING 168
SWIDTH 174 0
DWIDTH 3 0
BBX 3 1 0 5
BITMAP
54
ENDCHAR
STARTCHAR copyright
ENCODING 169
SWIDTH 331 0
DWIDTH 5 0
BBX 4 3 1 2
BITMAP
55
51
40
ENDCHAR
STARTCHAR ordfeminine
ENCODING 170
SWIDTH 226 0
DWIDTH 4 0
BBX 2 2 1 3
BITMAP
50
50
ENDCHAR
STARTCHAR guillemotleft
ENCODING 171
SWIDTH 289 0
DWIDTH 5 0
BBX 5 4 0 0
BITMAP
0540
1900
5D00
2700
ENDCHAR
STARTCHAR logicalnot
ENCODING 172
SWIDTH 265 0
DWIDTH 4 0
BBX 4 2 0 2
BITMAP
BE
02
ENDCHAR
STARTCHAR registered
ENCODING 174
SWIDTH 331 0
DWIDTH 5 0
BBX 4 4 1 2
BITMAP
15
55
51
54
ENDCHAR
STARTCHAR degree
ENCODING 176
SWIDTH 104 0
DWIDTH 2 0
BBX 2 3 1 4
BITMAP
60
50
90
ENDCHAR
STARTCHAR plusminus
ENCODING 177
SWIDTH 301 0
DWIDTH 5 0
BBX 5 4 0 0
BITMAP
0400
3F40
0400
5500
ENDCHAR
STARTCHAR twosuperior
ENCODING 178
SWIDTH 215 0
DWIDTH 3 0
BBX 2 3 1 2
BITMAP
20
10
90
ENDCHAR
STARTCHAR threesuperior
ENCODING 179
SWIDTH 190 0
DWIDTH 3 0
BBX 2 3 1 2
BITMAP
10
10
50
ENDCHAR
STARTCHAR acute
ENCODING 180
SWIDTH 157 0
DWIDTH 3 0
BBX 2 2 0 5
BITMAP
20
50
ENDCHAR
STARTCHAR mu
ENCODING 181
SWIDTH 324 0
DWIDTH 5 0
BBX 5 6 0 -2
BITMAP
0480
1140
2600
6540
8000
8000
ENDCHAR
STARTCHAR paragraph
ENCODING 182
SWIDTH 392 0
DWIDTH 6 0
BBX 9 9 -2 -4
BITMAP
001640
00B600
01F100
01E500
00D800
005400
005000
405000
654000
ENDCHAR
STARTCHAR periodcentered
ENCODING 183
SWIDTH 112 0
DWIDTH 2 0
BBX 2 1 0 2
BITMAP
50
ENDCHAR
STARTCHAR cedilla
ENCODING 184
SWIDTH 115 0
DWIDTH 2 0
BBX 2 2 0 -2
BITMAP
10
40
ENDCHAR
STARTCHAR onesuperior
ENCODING 185
SWIDTH 174 0
DWIDTH 3 0
BBX 2 3 1 2
BITMAP
D0
40
40
ENDCHAR
STARTCHAR ordmasculine
ENCODING 186
SWIDTH 178 0
DWIDTH 3 0
BBX 2 2 1 3
BITMAP
50
40
ENDCHAR
STARTCHAR guillemotright
ENCODING 187
SWIDTH 276 0
DWIDTH 4 0
BBX 4 4 0 0
BITMAP
58
26
15
50
ENDCHAR
STARTCHAR onequarter
ENCODING 188
SWIDTH 435 0
DWIDTH 7 0
BBX 6 6 1 -1
BITMAP
2040
1110
4540
5280
4140
4000
ENDCHAR
STARTCHAR onehalf
ENCODING 189
SWIDTH 434 0
DWIDTH 7 0
BBX 6 6 1 -1
BITMAP
2040
1140
4510
5040
4240
4000
ENDCHAR
STARTCHAR threequarters
ENCODING 190
SWIDTH 476 0
DWIDTH 8 0
BBX 6 7 1 -1
BITMAP
0010
1040
2140
1520
4550
1040
4000
ENDCHAR
STARTCHAR questiondown
ENCODING 191
SWIDTH 285 0
DWIDTH 5 0
BBX 6 9 -1 -5
BITMAP
0050
0000
0140
0100
0400
5000
8000
8100
6400
ENDCHAR
STARTCHAR Agrave
ENCODING 192
SWIDTH 996 0
DWIDTH 16 0
BBX 15 12 1 0
BITMAP
00000014
00000000
00005594
00000008
00000020
00000020
00000450
0002FFC0
00004080
40010080
80140080
AA4000A0
ENDCHAR
STARTCHAR Aacute
ENCODING 193
SWIDTH 996 0
DWIDTH 16 0
BBX 15 12 1 0
BITMAP
00000004
00000000
00005594
00000008
00000020
00000020
00000450
0002FFC0
00004080
40010080
80140080
AA4000A0
ENDCHAR
STARTCHAR Acircumflex
ENCODING 194
SWIDTH 996 0
DWIDTH 16 0
BBX 16 12 1 0
BITMAP
00000005
00000000
00005594
00000008
00000020
00000020
00000450
0002FFC0
00004080
40010080
80140080
AA4000A0
ENDCHAR
STARTCHAR Atilde
ENCODING 195
SWIDTH 996 0
DWIDTH 16 0
BBX 16 12 1 0
BITMAP
00000014
00000001
00005594
00000008
00000020
00000020
00000450
0002FFC0
00004080
40010080
80140080
AA4000A0
ENDCHAR
STARTCHAR Adieresis
ENCODING 196
SWIDTH 996 0
DWIDTH 16 0
BBX 16 12 1 0
BITMAP
00000005
00000000
00005594
00000008
00000020
00000020
00000450
0002FFC0
00004080
40010080
80140080
AA4000A0
ENDCHAR
STARTCHAR Aring
ENCODING 197
SWIDTH 996 0
DWIDTH 16 0
BBX 16 13 1 0
BITMAP
00000004
00000005
00000004
00005594
00000008
00000020
00000020
00000450
0002FFC0
00004080
40010080
80140080
AA4000A0
ENDCHAR
STARTCHAR AE
ENCODING 198
SWIDTH 1271 0
DWIDTH 20 0
BBX 20 10 1 0
BITMAP
0000559456
0000000901
0000002600
00000021C0
0000042400
0002FFE000
4000405000
4001005004
8014006004
6A40001550
ENDCHAR
STARTCHAR Ccedilla
ENCODING 199
SWIDTH 557 0
DWIDTH 9 0
BBX 9 10 1 0
BITMAP
015580
040040
100000
500000
800000
800000
800000
600100
181800
014000
ENDCHAR
STARTCHAR Egrave
ENCODING 200
SWIDTH 463 0
DWIDTH 7 0
BBX 8 12 0 0
BITMAP
0014
0000
0056
0100
0240
01D0
0400
1000
5000
5000
6004
1554
ENDCHAR
STARTCHAR Eacute
ENCODING 201
SWIDTH 463 0
DWIDTH 7 0
BBX 8 12 0 0
BITMAP
0004
0000
0056
0100
0240
01D0
0400
1000
5000
5000
6004
1554
ENDCHAR
STARTCHAR Ecircumflex
ENCODING 202
SWIDTH 463 0
DWIDTH 7 0
BBX 8 12 0 0
BITMAP
0005
0000
0056
0100
0240
01D0
0400
1000
5000
5000
6004
1554
ENDCHAR
STARTCHAR Edieresis
ENCODING 203
SWIDTH 463 0
DWIDTH 7 0
BBX 8 12 0 0
BITMAP
0015
0000
0056
0100
0240
01D0
0400
1000
5000
5000
6004
1554
ENDCHAR
STARTCHAR Igrave
ENCODING 204
SWIDTH 514 0
DWIDTH 8 0
BBX 11 12 0 0
BITMAP
000090
000000
000058
000120
000040
001080
001080
001100
100100
800900
906400
2F8000
ENDCHAR
STARTCHAR Iacute
ENCODING 205
SWIDTH 514 0
DWIDTH 8 0
BBX 11 12 0 0
BITMAP
000060
000000
000058
000120
000040
001080
001080
001100
100100
800900
906400
2F8000
ENDCHAR
STARTCHAR Icircumflex
ENCODING 206
SWIDTH 514 0
DWIDTH 8 0
BBX 11 12 0 0
BITMAP
000014
000000
000058
000120
000040
001080
001080
001100
100100
800900
906400
2F8000
ENDCHAR
STARTCHAR Idieresis
ENCODING 207
SWIDTH 514 0
DWIDTH 8 0
BBX 11 12 0 0
BITMAP
000054
000000
000058
000120
000040
001080
001080
001100
100100
800900
906400
2F8000
ENDCHAR
STARTCHAR Eth
ENCODING 208
SWIDTH 800 0
DWIDTH 13 0
BBX 13 11 0 -1
BITMAP
00565000
01005400
00010500
00020200
00050140
007FC080
00080080
00140040
05600000
55400400
00004000
ENDCHAR
STARTCHAR Ntilde
ENCODING 209
SWIDTH 796 0
DWIDTH 13 0
BBX 20 12 -3 0
BITMAP
0000002900
0000002900
001694000A
0000180010
0000150040
0000114040
0000108100
0000005100
1000402000
5001001400
2004000800
1A90000400
ENDCHAR
STARTCHAR Ograve
ENCODING 210
SWIDTH 608 0
DWIDTH 10 0
BBX 10 12 1 0
BITMAP
001400
000000
01BE00
050280
140090
100050
400050
800040
800080
900100
741900
1BE000
ENDCHAR
STARTCHAR Oacute
ENCODING 211
SWIDTH 608 0
DWIDTH 10 0
BBX 10 12 1 0
BITMAP
001400
000000
01BE00
050280
140090
100050
400050
800040
800080
900100
741900
1BE000
ENDCHAR
STARTCHAR Ocircumflex
ENCODING 212
SWIDTH 608 0
DWIDTH 10 0
BBX 10 12 1 0
BITMAP
001500
000000
01BE00
050280
140090
100050
400050
800040
800080
900100
741900
1BE000
ENDCHAR
STARTCHAR Otilde
ENCODING 213
SWIDTH 608 0
DWIDTH 10 0
BBX 10 12 1 0
BITMAP
003900
000000
01BE00
050280
140090
100050
400050
800040
800080
900100
741900
1BE000
ENDCHAR
STARTCHAR Odieresis
ENCODING 214
SWIDTH 608 0
DWIDTH 10 0
BBX 10 12 1 0
BITMAP
001400
000000
01BE00
050280
140090
100050
400050
800040
800080
900100
741900
1BE000
ENDCHAR
STARTCHAR multiply
ENCODING 215
SWIDTH 301 0
DWIDTH 5 0
BBX 3 4 1 0
BITMAP
18
24
10
44
ENDCHAR
STARTCHAR Oslash
ENCODING 216
SWIDTH 605 0
DWIDTH 10 0
BBX 10 10 1 0
BITMAP
01BE40
0A0480
140450
202050
808050
814080
820080
880200
541900
1BE000
ENDCHAR
STARTCHAR Ugrave
ENCODING 217
SWIDTH 717 0
DWIDTH 11 0
BBX 13 12 0 0
BITMAP
00005000
00001000
05A80080
10040200
00100200
40400900
41401800
01002400
02006000
02016000
03052000
02E42800
ENDCHAR
STARTCHAR Uacute
ENCODING 218
SWIDTH 717 0
DWIDTH 11 0
BBX 13 12 0 0
BITMAP
00000400
00001000
05A80080
10040200
00100200
40400900
41401800
01002400
02006000
02016000
03052000
02E42800
ENDCHAR
STARTCHAR Ucircumflex
ENCODING 219
SWIDTH 718 0
DWIDTH 11 0
BBX 13 12 0 0
BITMAP
00001400
00000000
05A80080
10040200
00100200
40400900
41401800
01002400
02006000
02016000
03052000
02E42800
ENDCHAR
STARTCHAR Udieresis
ENCODING 220
SWIDTH 718 0
DWIDTH 11 0
BBX 13 12 0 0
BITMAP
00005400
00000000
05A80080
10040200
00100200
40400900
41401800
01002400
02006000
02016000
03052000
02E42800
ENDCHAR
STARTCHAR Yacute
ENCODING 221
SWIDTH 662 0
DWIDTH 11 0
BBX 14 14 0 -2
BITMAP
00000500
00000400
00190020
00050050
00040080
00080240
00040600
04141800
10145400
401E5000
80004000
80014000
64190000
1F900000
ENDCHAR
STARTCHAR Thorn
ENCODING 222
SWIDTH 745 0
DWIDTH 12 0
BBX 12 10 1 0
BITMAP
000010
000040
0005F4
00119D
000246
000305
400600
4005A0
401000
654000
ENDCHAR
STARTCHAR germandbls
ENCODING 223
SWIDTH 304 0
DWIDTH 5 0
BBX 14 16 -5 -4
BITMAP
00000500
00001010
00000050
00000180
00000600
00012800
00009000
00058000
00044000
00044000
00105000
0013C000
00000000
00400000
00000000
94000000
ENDCHAR
STARTCHAR agrave
ENCODING 224
SWIDTH 294 0
DWIDTH 5 0
BBX 5 6 0 0
BITMAP
0200
0000
1F40
2100
5600
6200
ENDCHAR
STARTCHAR aacute
ENCODING 225
SWIDTH 294 0
DWIDTH 5 0
BBX 5 7 0 0
BITMAP
0140
0100
0000
1F40
2100
5600
6200
ENDCHAR
STARTCHAR acircumflex
ENCODING 226
SWIDTH 294 0
DWIDTH 5 0
BBX 5 7 0 0
BITMAP
0100
0540
0000
1F40
2100
5600
6200
ENDCHAR
STARTCHAR atilde
ENCODING 227
SWIDTH 294 0
DWIDTH 5 0
BBX 5 7 0 0
BITMAP
0900
0740
0000
1F40
2100
5600
6200
ENDCHAR
STARTCHAR adieresis
ENCODING 228
SWIDTH 284 0
DWIDTH 5 0
BBX 5 6 0 0
BITMAP
0540
0000
1F40
2100
5600
6200
ENDCHAR
STARTCHAR aring
ENCODING 229
SWIDTH 294 0
DWIDTH 5 0
BBX 5 7 0 0
BITMAP
0200
0500
0200
1F40
2100
5600
6200
ENDCHAR
STARTCHAR ae
ENCODING 230
SWIDTH 363 0
DWIDTH 6 0
BBX 6 5 0 0
BITMAP
0040
0660
1250
4600
6240
ENDCHAR
STARTCHAR ccedilla
ENCODING 231
SWIDTH 203 0
DWIDTH 3 0
BBX 3 6 0 -2
BITMAP
04
10
40
64
10
10
ENDCHAR
STARTCHAR egrave
ENCODING 232
SWIDTH 206 0
DWIDTH 3 0
BBX 4 6 0 0
BITMAP
05
00
08
14
40
64
ENDCHAR
STARTCHAR eacute
ENCODING 233
SWIDTH 206 0
DWIDTH 3 0
BBX 4 7 0 0
BITMAP
02
04
00
08
14
40
64
ENDCHAR
STARTCHAR ecircumflex
ENCODING 234
SWIDTH 206 0
DWIDTH 3 0
BBX 4 7 0 0
BITMAP
04
05
00
08
14
40
64
ENDCHAR
STARTCHAR edieresis
ENCODING 235
SWIDTH 206 0
DWIDTH 3 0
BBX 4 6 0 0
BITMAP
05
00
08
14
40
64
ENDCHAR
STARTCHAR igrave
ENCODING 236
SWIDTH 149 0
DWIDTH 2 0
BBX 3 6 0 0
BITMAP
14
00
10
10
50
50
ENDCHAR
STARTCHAR iacute
ENCODING 237
SWIDTH 149 0
DWIDTH 2 0
BBX 4 7 0 0
BITMAP
05
04
00
10
10
50
50
ENDCHAR
STARTCHAR icircumflex
ENCODING 238
SWIDTH 149 0
DWIDTH 2 0
BBX 3 7 0 0
BITMAP
04
14
00
10
10
50
50
ENDCHAR
STARTCHAR idieresis
ENCODING 239
SWIDTH 149 0
DWIDTH 2 0
BBX 4 6 0 0
BITMAP
15
00
10
10
50
50
ENDCHAR
STARTCHAR eth
ENCODING 240
SWIDTH 234 0
DWIDTH 4 0
BBX 4 10 0 0
BITMAP
50
20
14
18
05
01
01
11
44
64
ENDCHAR
STARTCHAR ntilde
ENCODING 241
SWIDTH 291 0
DWIDTH 5 0
BBX 5 7 0 0
BITMAP
0900
0740
0000
2240
2200
1200
4200
ENDCHAR
STARTCHAR ograve
ENCODING 242
SWIDTH 225 0
DWIDTH 4 0
BBX 4 6 0 0
BITMAP
05
00
05
05
48
74
ENDCHAR
STARTCHAR oacute
ENCODING 243
SWIDTH 225 0
DWIDTH 4 0
BBX 4 7 0 0
BITMAP
02
04
00
05
05
48
74
ENDCHAR
STARTCHAR ocircumflex
ENCODING 244
SWIDTH 225 0
DWIDTH 4 0
BBX 4 7 0 0
BITMAP
01
05
00
05
05
48
74
ENDCHAR
STARTCHAR otilde
ENCODING 245
SWIDTH 225 0
DWIDTH 4 0
BBX 4 7 0 0
BITMAP
08
17
00
05
05
48
74
ENDCHAR
STARTCHAR odieresis
ENCODING 246
SWIDTH 225 0
DWIDTH 4 0
BBX 4 6 0 0
BITMAP
05
00
05
05
48
74
ENDCHAR
STARTCHAR divide
ENCODING 247
SWIDTH 301 0
DWIDTH 5 0
BBX 3 3 1 0
BITMAP
54
00
10
ENDCHAR
STARTCHAR oslash
ENCODING 248
SWIDTH 225 0
DWIDTH 4 0
BBX 4 4 0 0
BITMAP
19
15
54
64
ENDCHAR
STARTCHAR ugrave
ENCODING 249
SWIDTH 299 0
DWIDTH 5 0
BBX 5 6 0 0
BITMAP
0200
0000
1140
1200
5600
5200
ENDCHAR
STARTCHAR uacute
ENCODING 250
SWIDTH 299 0
DWIDTH 5 0
BBX 5 7 0 0
BITMAP
0180
0100
0000
1140
1200
5600
5200
ENDCHAR
STARTCHAR ucircumflex
ENCODING 251
SWIDTH 299 0
DWIDTH 5 0
BBX 5 7 0 0
BITMAP
0100
0140
0000
1140
1200
5600
5200
ENDCHAR
STARTCHAR udieresis
ENCODING 252
SWIDTH 299 0
DWIDTH 5 0
BBX 5 6 0 0
BITMAP
0540
0000
1140
1200
5600
5200
ENDCHAR
STARTCHAR yacute
ENCODING 253
SWIDTH 280 0
DWIDTH 4 0
BBX 8 11 -3 -4
BITMAP
0002
0004
0000
0045
0048
0158
0154
0010
4010
4040
5500
ENDCHAR
STARTCHAR thorn
ENCODING 254
SWIDTH 261 0
DWIDTH 4 0
BBX 5 12 -1 -4
BITMAP
0040
0140
0100
0100
0540
0080
0180
2E00
1000
1000
4000
5000
ENDCHAR
STARTCHAR ydieresis
ENCODING 255
SWIDTH 280 0
DWIDTH 4 0
BBX 8 10 -3 -4
BITMAP
0015
0000
0045
0048
0158
0154
0010
4010
4040
5500
ENDCHAR
STARTCHAR dotlessi
ENCODING 305
SWIDTH 149 0
DWIDTH 2 0
BBX 2 4 0 0
BITMAP
10
10
50
50
ENDCHAR
STARTCHAR Lslash
ENCODING 321
SWIDTH 657 0
DWIDTH 11 0
BBX 12 10 0 0
BITMAP
00006D
000141
000101
000540
001D00
001800
002000
156000
41D410
7E1F90
ENDCHAR
STARTCHAR lslash
ENCODING 322
SWIDTH 134 0
DWIDTH 2 0
BBX 8 12 0 0
BITMAP
0019
0050
0040
0100
0100
1400
0400
1000
1000
1000
5000
5000
ENDCHAR
STARTCHAR OE
ENCODING 338
SWIDTH 827 0
DWIDTH 13 0
BBX 13 10 1 0
BITMAP
01BE0580
09028040
1000D000
10007400
40010000
80040000
80240000
90200100
74140100
1FE95400
ENDCHAR
STARTCHAR oe
ENCODING 339
SWIDTH 345 0
DWIDTH 6 0
BBX 6 4 0 0
BITMAP
1950
0240
4500
6640
ENDCHAR
STARTCHAR Scaron
ENCODING 352
SWIDTH 480 0
DWIDTH 8 0
BBX 8 12 1 0
BITMAP
0024
0000
0004
0101
0200
0180
0090
0020
0014
4014
8010
6540
ENDCHAR
STARTCHAR scaron
ENCODING 353
SWIDTH 188 0
DWIDTH 3 0
BBX 3 7 0 0
BITMAP
10
04
00
14
20
14
54
ENDCHAR
STARTCHAR Ydieresis
ENCODING 376
SWIDTH 662 0
DWIDTH 11 0
BBX 14 14 0 -2
BITMAP
00001400
00000000
00190020
00050050
00040080
00080240
00040600
04141800
10145400
401E5000
80004000
80014000
64190000
1F900000
ENDCHAR
STARTCHAR Zcaron
ENCODING 381
SWIDTH 625 0
DWIDTH 10 0
BBX 10 12 1 0
BITMAP
000640
000000
007FE0
014000
010000
000400
001000
004000
010000
040040
290100
46F800
ENDCHAR
STARTCHAR zcaron
ENCODING 382
SWIDTH 248 0
DWIDTH 4 0
BBX 4 7 0 0
BITMAP
05
01
00
19
04
10
A4
ENDCHAR
STARTCHAR florin
ENCODING 402
SWIDTH 214 0
DWIDTH 3 0
BBX 5 6 -1 -1
BITMAP
02C0
0500
1E40
0400
1000
5000
ENDCHAR
STARTCHAR circumflex
ENCODING 710
SWIDTH 196 0
DWIDTH 3 0
BBX 2 2 1 5
BITMAP
40
50
ENDCHAR
STARTCHAR caron
ENCODING 711
SWIDTH 196 0
DWIDTH 3 0
BBX 2 2 0 5
BITMAP
40
10
ENDCHAR
STARTCHAR breve
ENCODING 728
SWIDTH 198 0
DWIDTH 3 0
BBX 3 2 0 5
BITMAP
40
34
ENDCHAR
STARTCHAR dotaccent
ENCODING 729
SWIDTH 89 0
DWIDTH 1 0
BBX 1 1 0 5
BITMAP
40
ENDCHAR
STARTCHAR ring
ENCODING 730
SWIDTH 117 0
DWIDTH 2 0
BBX 2 3 0 4
BITMAP
50
50
90
ENDCHAR
STARTCHAR ogonek
ENCODING 731
SWIDTH 124 0
DWIDTH 2 0
BBX 1 2 0 -2
BITMAP
40
40
ENDCHAR
STARTCHAR tilde
ENCODING 732
SWIDTH 222 0
DWIDTH 4 0
BBX 3 2 0 5
BITMAP
60
68
ENDCHAR
STARTCHAR hungarumlaut
ENCODING 733
SWIDTH 253 0
DWIDTH 4 0
BBX 4 2 0 5
BITMAP
26
54
ENDCHAR
STARTCHAR mu.dup2
ENCODING 956
SWIDTH 324 0
DWIDTH 5 0
BBX 5 6 0 -2
BITMAP
0480
1140
2600
6540
8000
8000
ENDCHAR
STARTCHAR endash
ENCODING 8211
SWIDTH 500 0
DWIDTH 8 0
BBX 8 1 0 2
BITMAP
BFFE
ENDCHAR
STARTCHAR emdash
ENCODING 8212
SWIDTH 1000 0
DWIDTH 16 0
BBX 16 1 0 2
BITMAP
BFFFFFFE
ENDCHAR
STARTCHAR quoteleft
ENCODING 8216
SWIDTH 87 0
DWIDTH 1 0
BBX 1 2 1 4
BITMAP
40
40
ENDCHAR
STARTCHAR quoteright
ENCODING 8217
SWIDTH 87 0
DWIDTH 1 0
BBX 1 2 1 5
BITMAP
40
40
ENDCHAR
STARTCHAR quotesinglbase
ENCODING 8218
SWIDTH 112 0
DWIDTH 2 0
BBX 2 1 0 0
BITMAP
50
ENDCHAR
STARTCHAR quotedblleft
ENCODING 8220
SWIDTH 167 0
DWIDTH 3 0
BBX 2 3 1 4
BITMAP
40
50
60
ENDCHAR
STARTCHAR quotedblright
ENCODING 8221
SWIDTH 167 0
DWIDTH 3 0
BBX 3 3 1 4
BITMAP
54
54
50
ENDCHAR
STARTCHAR quotedblbase
ENCODING 8222
SWIDTH 192 0
DWIDTH 3 0
BBX 3 2 0 -1
BITMAP
58
50
ENDCHAR
STARTCHAR dagger
ENCODING 8224
SWIDTH 185 0
DWIDTH 3 0
BBX 4 10 0 -1
BITMAP
04
04
04
7E
10
10
10
10
40
40
ENDCHAR
STARTCHAR daggerdbl
ENCODING 8225
SWIDTH 185 0
DWIDTH 3 0
BBX 4 10 0 -1
BITMAP
04
04
04
7E
10
10
10
B8
40
40
ENDCHAR
STARTCHAR bullet
ENCODING 8226
SWIDTH 207 0
DWIDTH 3 0
BBX 2 2 1 1
BITMAP
A0
D0
ENDCHAR
STARTCHAR ellipsis
ENCODING 8230
SWIDTH 376 0
DWIDTH 6 0
BBX 6 1 0 0
BITMAP
5510
ENDCHAR
STARTCHAR perthousand
ENCODING 8240
SWIDTH 571 0
DWIDTH 9 0
BBX 9 7 0 -1
BITMAP
001000
184000
450000
556180
051440
114500
500000
ENDCHAR
STARTCHAR guilsinglleft
ENCODING 8249
SWIDTH 189 0
DWIDTH 3 0
BBX 3 4 0 0
BITMAP
04
10
50
20
ENDCHAR
STARTCHAR guilsinglright
ENCODING 8250
SWIDTH 176 0
DWIDTH 3 0
BBX 3 4 0 0
BITMAP
50
24
10
40
ENDCHAR
STARTCHAR fraction
ENCODING 8260
SWIDTH 220 0
DWIDTH 4 0
BBX 5 6 0 0
BITMAP
0040
0040
0100
0400
1000
4000
ENDCHAR
STARTCHAR Euro
ENCODING 8364
SWIDTH 360 0
DWIDTH 6 0
BBX 5 6 0 0
BITMAP
0B40
0400
7D00
2000
5000
1100
ENDCHAR
STARTCHAR trademark
ENCODING 8482
SWIDTH 389 0
DWIDTH 6 0
BBX 5 2 1 3
BITMAP
5140
4540
ENDCHAR
STARTCHAR minus
ENCODING 8722
SWIDTH 301 0
DWIDTH 5 0
BBX 4 1 1 2
BITMAP
FD
ENDCHAR
STARTCHAR fi
ENCODING 64257
SWIDTH 297 0
DWIDTH 5 0
BBX 14 16 -5 -4
BITMAP
00000190
00000000
00001000
00004000
00004000
00010400
00021000
00010000
001FD000
00084000
00084000
00148000
00100000
00400000
00400000
54000000
ENDCHAR
STARTCHAR fl
ENCODING 64258
SWIDTH 290 0
DWIDTH 5 0
BBX 15 16 -5 -4
BITMAP
00000258
00000440
00001000
00004000
00004400
00010000
00021000
00051000
001FC000
00084000
00084000
00149000
00100000
00400000
00400000
54000000
ENDCHAR
STARTCHAR .notdef
ENCODING -1
SWIDTH 150 0
DWIDTH 2 0
BBX 1 1 0 0
BITMAP
00
ENDCHAR
STARTCHAR .null
ENCODING -1
SWIDTH 0 0
DWIDTH 0 0
BBX 1 1 0 0
BITMAP
00
ENDCHAR
STARTCHAR nonmarkingreturn
ENCODING -1
SWIDTH 150 0
DWIDTH 2 0
BBX 1 1 0 0
BITMAP
00
ENDCHAR
ENDFONT
